<!-- Fichier: assets/icons/sprite.svg -->
<svg xmlns="http://www.w3.org/2000/svg" style="display: none;">
  <symbol id="upload" viewBox="0 -960 960 960">
    <path d="M440-320v-326L336-542l-56-58 200-200 200 200-56 58-104-104v326h-80ZM240-160q-33 0-56.5-23.5T160-240v-120h80v120h480v-120h80v120q0 33-23.5 56.5T720-160H240Z"/>
  </symbol>

  <symbol id="slider" viewBox="0 -960 960 960">
    <path d="M234.55-160q-14.22 0-23.72-9.58-9.5-9.59-9.5-23.75v-256h-48q-14.16 0-23.75-9.62-9.58-9.62-9.58-23.83 0-14.22 9.58-23.72 9.59-9.5 23.75-9.5H316q14.17 0 23.75 9.62 9.58 9.61 9.58 23.83 0 14.22-9.58 23.72-9.58 9.5-23.75 9.5h-48v256q0 14.16-9.62 23.75-9.61 9.58-23.83 9.58Zm0-422.67q-14.22 0-23.72-9.58-9.5-9.58-9.5-23.75v-150.67q0-14.16 9.62-23.75 9.62-9.58 23.83-9.58 14.22 0 23.72 9.58 9.5 9.59 9.5 23.75V-616q0 14.17-9.62 23.75-9.61 9.58-23.83 9.58ZM398.67-610q-14.17 0-23.75-9.62-9.59-9.61-9.59-23.83 0-14.22 9.59-23.72 9.58-9.5 23.75-9.5h48v-90q0-14.16 9.61-23.75 9.62-9.58 23.84-9.58 14.21 0 23.71 9.58 9.5 9.59 9.5 23.75v90h48q14.17 0 23.75 9.62 9.59 9.62 9.59 23.83 0 14.22-9.59 23.72-9.58 9.5-23.75 9.5H398.67Zm81.21 450q-14.21 0-23.71-9.58-9.5-9.59-9.5-23.75V-510q0-14.17 9.61-23.75 9.62-9.58 23.84-9.58 14.21 0 23.71 9.58t9.5 23.75v316.67q0 14.16-9.61 23.75-9.62 9.58-23.84 9.58Zm245.34 0q-14.22 0-23.72-9.58-9.5-9.59-9.5-23.75v-91.34h-48q-14.17 0-23.75-9.61-9.58-9.62-9.58-23.84 0-14.21 9.58-23.71t23.75-9.5h162.67q14.16 0 23.75 9.61 9.58 9.62 9.58 23.84 0 14.21-9.58 23.71-9.59 9.5-23.75 9.5h-48v91.34q0 14.16-9.62 23.75-9.62 9.58-23.83 9.58Zm0-258q-14.22 0-23.72-9.58-9.5-9.59-9.5-23.75v-315.34q0-14.16 9.62-23.75 9.61-9.58 23.83-9.58 14.22 0 23.72 9.58 9.5 9.59 9.5 23.75v315.34q0 14.16-9.62 23.75-9.62 9.58-23.83 9.58Z"/>
  </symbol>

  <symbol id="42logo" viewBox="0 -200 960 960">
    <polygon points="32,412.6 362.1,412.6 362.1,578 526.8,578 526.8,279.1 197.3,279.1 526.8,-51.1 362.1,-51.1 32,279.1 "/>
    <polygon points="597.9,114.2 762.7,-51.1 597.9,-51.1 "/>
    <polygon points="762.7,114.2 597.9,279.1 597.9,443.9 762.7,443.9 762.7,279.1 928,114.2 928,-51.1 762.7,-51.1 "/>
    <polygon points="928,279.1 762.7,443.9 928,443.9 "/>
  </symbol>

  <symbol id="edit" viewBox="0 -960 960 960">
    <path d="M200-200h57l391-391-57-57-391 391v57Zm-80 80v-170l528-527q12-11 26.5-17t30.5-6q16 0 31 6t26 18l55 56q12 11 17.5 26t5.5 30q0 16-5.5 30.5T817-647L290-120H120Z"/>
  </symbol>

<symbol id="save" viewBox="0 0 960 960">
  <path d="M840 280v480q0 33-23.5 56.5T760 840H200q-33 0-56.5-23.5T120 760V200q0-33 23.5-56.5T200 120h480l160 160Zm-80 34L646 200H200v560h560V314ZM480 720q50 0 85-35t35-85q0-50-35-85t-85-35q-50 0-85 35t-35 85q0 50 35 85t85 35ZM240 400h360V240H240v160Zm-40-86v446-560 114Z"/>
</symbol>

<symbol id="addUser" viewBox="0 0 960 960">
  <path d="M720 560v-120H600v-80h120V240h80v120h120v80H800v120h-80ZM360 480q-66 0-113-47t-47-113q0-66 47-113t113-47q66 0 113 47t47 113q0 66-47 113t-113 47ZM40 800v-112q0-34 17.5-62.5T104 582q62-31 126-46.5T360 520q66 0 130 15.5T616 582q29 15 46.5 43.5T680 688v112H40Zm80-80h480v-32q0-11-5.5-20T580 654q-54-27-109-40.5T360 600q-56 0-111 13.5T140 654q-9 5-14.5 14t-5.5 20v32Zm240-320q33 0 56.5-23.5T440 320q0-33-23.5-56.5T360 240q-33 0-56.5 23.5T280 320q0 33 23.5 56.5T360 400Zm0-80Zm0 400Z"/>
</symbol>
</svg>