{
  "accessors": [
    {
      "bufferView": 2,
      "componentType": 5126,
      "count": 1967,
      "max": [
        1.0106542110443115,
        1.9270457029342651,
        1.0106542110443115
      ],
      "min": [
        -1.0106538534164429,
        -1.9322847127914429,
        -1.0106545686721802
      ],
      "type": "VEC3"
    },
    {
      "bufferView": 2,
      "byteOffset": 23604,
      "componentType": 5126,
      "count": 1967,
      "max": [
        1.0,
        1.0,
        1.0
      ],
      "min": [
        -1.0,
        -1.0,
        -1.0
      ],
      "type": "VEC3"
    },
    {
      "bufferView": 1,
      "componentType": 5126,
      "count": 1967,
      "max": [
        0.9914847016334534,
        0.9764317274093628
      ],
      "min": [
        0.004654553718864918,
        0.004654553718864918
      ],
      "type": "VEC2"
    },
    {
      "bufferView": 0,
      "componentType": 5125,
      "count": 9792,
      "type": "SCALAR"
    },
    {
      "bufferView": 2,
      "byteOffset": 47208,
      "componentType": 5126,
      "count": 544,
      "max": [
        0.9809691309928894,
        1.0499986410140991,
        0.9809694886207581
      ],
      "min": [
        -0.9809700846672058,
        -1.0500013828277588,
        -0.9809699654579163
      ],
      "type": "VEC3"
    },
    {
      "bufferView": 2,
      "byteOffset": 53736,
      "componentType": 5126,
      "count": 544,
      "max": [
        1.0,
        0.8834513425827026,
        1.0
      ],
      "min": [
        -1.0,
        -0.8834490180015564,
        -1.0
      ],
      "type": "VEC3"
    },
    {
      "bufferView": 1,
      "byteOffset": 15736,
      "componentType": 5126,
      "count": 544,
      "max": [
        0.9806071519851685,
        0.9761438965797424
      ],
      "min": [
        0.01939297653734684,
        0.01939297653734684
      ],
      "type": "VEC2"
    },
    {
      "bufferView": 0,
      "byteOffset": 39168,
      "componentType": 5125,
      "count": 2304,
      "type": "SCALAR"
    }
  ],
  "asset": {
    "extras": {
      "author": "Reikan (https://sketchfab.com/jcremoux)",
      "license": "CC-BY-4.0 (http://creativecommons.org/licenses/by/4.0/)",
      "source": "https://sketchfab.com/3d-models/capsule-item-1b5658ce6e2a4347a09737810694b3d3",
      "title": "Capsule item"
    },
    "generator": "Sketchfab-12.68.0",
    "version": "2.0"
  },
  "bufferViews": [
    {
      "buffer": 0,
      "byteLength": 48384,
      "name": "floatBufferViews",
      "target": 34963
    },
    {
      "buffer": 0,
      "byteLength": 20088,
      "byteOffset": 48384,
      "byteStride": 8,
      "name": "floatBufferViews",
      "target": 34962
    },
    {
      "buffer": 0,
      "byteLength": 60264,
      "byteOffset": 68472,
      "byteStride": 12,
      "name": "floatBufferViews",
      "target": 34962
    }
  ],
  "buffers": [
    {
      "byteLength": 128736,
      "uri": "scene.bin"
    }
  ],
  "extensionsUsed": [
    "KHR_materials_transmission"
  ],
  "materials": [
    {
      "doubleSided": true,
      "name": "Material.001",
      "pbrMetallicRoughness": {
        "baseColorFactor": [
          0.667162779707386,
          0.667162779707386,
          0.667162779707386,
          1.0
        ],
        "metallicFactor": 0.8468541184052922,
        "roughnessFactor": 0.12331351196882087
      }
    },
    {
      "alphaMode": "BLEND",
      "doubleSided": true,
      "extensions": {
        "KHR_materials_transmission": {
          "transmissionFactor": 0.5605174835379312
        }
      },
      "name": "Material.002",
      "pbrMetallicRoughness": {
        "baseColorFactor": [
          0.0,
          0.20725496837474888,
          0.6358071275813759,
          0.4394825164620689
        ],
        "metallicFactor": 0.11723333880548918,
        "roughnessFactor": 0.2261079595546881
      }
    }
  ],
  "meshes": [
    {
      "name": "Capsule_Body_Material.001_0",
      "primitives": [
        {
          "attributes": {
            "NORMAL": 1,
            "POSITION": 0,
            "TEXCOORD_0": 2
          },
          "indices": 3,
          "material": 0,
          "mode": 4
        }
      ]
    },
    {
      "name": "Capsule_Glass_Material.002_0",
      "primitives": [
        {
          "attributes": {
            "NORMAL": 5,
            "POSITION": 4,
            "TEXCOORD_0": 6
          },
          "indices": 7,
          "material": 1,
          "mode": 4
        }
      ]
    }
  ],
  "nodes": [
    {
      "children": [
        1
      ],
      "matrix": [
        1.0,
        0.0,
        0.0,
        0.0,
        0.0,
        2.220446049250313e-16,
        -1.0,
        0.0,
        0.0,
        1.0,
        2.220446049250313e-16,
        0.0,
        0.0,
        0.0,
        0.0,
        1.0
      ],
      "name": "Sketchfab_model"
    },
    {
      "children": [
        2
      ],
      "matrix": [
        0.009999999776482582,
        0.0,
        0.0,
        0.0,
        0.0,
        0.0,
        0.009999999776482582,
        0.0,
        0.0,
        -0.009999999776482582,
        0.0,
        0.0,
        0.0,
        0.0,
        0.0,
        1.0
      ],
      "name": "d4e80e2304e14a699066cddc5a9a5f47.fbx"
    },
    {
      "children": [
        3,
        5
      ],
      "name": "RootNode"
    },
    {
      "children": [
        4
      ],
      "matrix": [
        100.0,
        0.0,
        0.0,
        0.0,
        0.0,
        99.99999999999866,
        1.6292067073209114e-05,
        0.0,
        0.0,
        -1.6292067073209114e-05,
        99.99999999999866,
        0.0,
        0.0,
        0.0,
        0.0,
        1.0
      ],
      "name": "Capsule_Body"
    },
    {
      "mesh": 0,
      "name": "Capsule_Body_Material.001_0"
    },
    {
      "children": [
        6
      ],
      "matrix": [
        100.0,
        0.0,
        0.0,
        0.0,
        0.0,
        99.99999999999866,
        1.6292067073209114e-05,
        0.0,
        0.0,
        -1.6292067073209114e-05,
        99.99999999999866,
        0.0,
        0.0,
        0.0,
        0.0,
        1.0
      ],
      "name": "Capsule_Glass"
    },
    {
      "mesh": 1,
      "name": "Capsule_Glass_Material.002_0"
    }
  ],
  "scene": 0,
  "scenes": [
    {
      "name": "Sketchfab_Scene",
      "nodes": [
        0
      ]
    }
  ]
}
